<svg xmlns="http://www.w3.org/2000/svg" style="display: none;">
  <symbol id="Aspirasiku" viewBox="0 0 32 32">
    <path d="M9.31 9.94h-.03L7.19 7.7v-.04l7.4-1.91h.04l.02.01-2.37 3.78-2.93.4zm.14 19.87H9.4v-.08l2.51-5.27h-.01l-.02-.02-2.44-1.38-.02-.01-.03-.02 2.75-5.1v-.15L9.7 15.27v-.07l7.2-11.13.51-.7.5-.31 6.6-1.1.14.04.14.04.08.16.08.15-.04.2-.04.2-4.68 9.96-.48 1.04 2.2 1.01-.02.05-.02.05-3.72 4.2-.02.07-.03.07 1.46.59L15 24.33l.65.37.57.28-6.75 4.83zm6.32-15.07h.26l.66-.33.33-.5.1-.51-.18-.57-.37-.44-.65-.25-.64.1-.57.46-.2.48v.53l.1.24.1.24.35.32.45.23zm1.51-3.1h.3l.66-.33.33-.6v-.7l-.21-.42-.23-.2-.23-.18-.6-.17-.46.1-.47.32-.32.56v.72l.11.21.11.21.14.12.13.12.45.23zm1.4-2.96h.08l.55-.15.23-.2.24-.2.2-.48V7.1l-.16-.32-.15-.32-.63-.36h-.62l-.48.2-.4.47-.07.28-.08.28.1.5.29.45.37.28.46.1z" fill="CurrentColor"></path></symbol>

  <symbol id="E-Vote" viewBox="0 -960 960 960" fill="CurrentColor"><path d="M200-80q-33 0-56.5-23.5T120-160v-182l110-125 57 57-80 90h546l-78-88 57-57 108 123v182q0 33-23.5 56.5T760-80H200Zm0-80h560v-80H200v80Zm225-225L284-526q-23-23-22.5-56.5T285-639l196-196q23-23 57-24t57 22l141 141q23 23 24 56t-22 56L538-384q-23 23-56.5 22.5T425-385Zm255-254L539-780 341-582l141 141 198-198ZM200-160v-80 80Z">
    </path>
  </symbol>
  
<symbol id="Fame" viewBox="0 0 24 24" fill="none" stroke="currentColor" stroke-width="2" stroke-linecap="round" stroke-linejoin="round" class="icon icon-tabler icons-tabler-outline icon-tabler-user-star"><path stroke="none" d="M0 0h24v24H0z" fill="none"/><path d="M8 7a4 4 0 1 0 8 0a4 4 0 0 0 -8 0" /><path d="M6 21v-2a4 4 0 0 1 4 -4h.5" /><path d="M17.8 20.817l-2.172 1.138a.392 .392 0 0 1 -.568 -.41l.415 -2.411l-1.757 -1.707a.389 .389 0 0 1 .217 -.665l2.428 -.352l1.086 -2.193a.392 .392 0 0 1 .702 0l1.086 2.193l2.428 .352a.39 .39 0 0 1 .217 .665l-1.757 1.707l.414 2.41a.39 .39 0 0 1 -.567 .411l-2.172 -1.138" /></symbol>
</svg>
